HIERARCHY
ROOT joint_Root
{
	OFFSET 0.0 0.0 0.0
	CHANNELS 6 Xposition Yposition Zposition Zrotation Xrotation Yrotation 
	JOINT Hips
	{
		OFFSET -17.1583 93.1646 452.98
		CHANNELS 6 Xposition Yposition Zposition Zrotation Xrotation Yrotation 
		JOINT Spine
		{
			OFFSET 15.7357 0.0 0.0
			CHANNELS 6 Xposition Yposition Zposition Zrotation Xrotation Yrotation 
			JOINT Chest
			{
				OFFSET 8.98455 -0.406207 0.0
				CHANNELS 6 Xposition Yposition Zposition Zrotation Xrotation Yrotation 
				JOINT Neck
				{
					OFFSET 16.3773 0.0 0.0
					CHANNELS 6 Xposition Yposition Zposition Zrotation Xrotation Yrotation 
					JOINT Head
					{
						OFFSET 6.45672 0.0 0.0
						CHANNELS 6 Xposition Yposition Zposition Zrotation Xrotation Yrotation 
						End Site
						{
							OFFSET 0.0 0.0 0.0
						}
					}
				}
				JOINT Shoulder_L
				{
					OFFSET 12.9942 -0.242716 4.98039
					CHANNELS 6 Xposition Yposition Zposition Zrotation Xrotation Yrotation 
					JOINT UpperArm_L
					{
						OFFSET 5.34809 0.0 0.0
						CHANNELS 6 Xposition Yposition Zposition Zrotation Xrotation Yrotation 
						JOINT LowerArm_L
						{
							OFFSET 24.3286 1.87007e-05 0.0
							CHANNELS 6 Xposition Yposition Zposition Zrotation Xrotation Yrotation 
							JOINT Hand_L
							{
								OFFSET 22.2916 0.0 0.0
								CHANNELS 6 Xposition Yposition Zposition Zrotation Xrotation Yrotation 
								End Site
								{
									OFFSET 0.0 0.0 0.0
								}
							}
						}
					}
				}
				JOINT Shoulder_R
				{
					OFFSET 12.9945 -0.242716 -4.98039
					CHANNELS 6 Xposition Yposition Zposition Zrotation Xrotation Yrotation 
					JOINT UpperArm_R
					{
						OFFSET -5.34813 0.0 0.0
						CHANNELS 6 Xposition Yposition Zposition Zrotation Xrotation Yrotation 
						JOINT LowerArm_R
						{
							OFFSET -24.3289 0.000322201 0.0
							CHANNELS 6 Xposition Yposition Zposition Zrotation Xrotation Yrotation 
							JOINT Hand_R
							{
								OFFSET -22.2915 -0.000108084 0.0
								CHANNELS 6 Xposition Yposition Zposition Zrotation Xrotation Yrotation 
								End Site
								{
									OFFSET 0.0 0.0 0.0
								}
							}
						}
					}
				}
			}
		}
		JOINT UpperLeg_L
		{
			OFFSET -2.19248 -6.46944 0.0
			CHANNELS 6 Xposition Yposition Zposition Zrotation Xrotation Yrotation 
			JOINT LowerLeg_L
			{
				OFFSET 39.0811 0.0 -1.23785e-05
				CHANNELS 6 Xposition Yposition Zposition Zrotation Xrotation Yrotation 
				JOINT Foot_L
				{
					OFFSET 40.9854 0.0 -1.26872e-05
					CHANNELS 6 Xposition Yposition Zposition Zrotation Xrotation Yrotation 
					JOINT Toes_L
					{
						OFFSET 11.7543 0.0 0.0
						CHANNELS 6 Xposition Yposition Zposition Zrotation Xrotation Yrotation 
						End Site
						{
							OFFSET 0.0 0.0 0.0
						}
					}
				}
			}
		}
		JOINT UpperLeg_R
		{
			OFFSET -2.19251 6.46944 0.0
			CHANNELS 6 Xposition Yposition Zposition Zrotation Xrotation Yrotation 
			JOINT LowerLeg_R
			{
				OFFSET -39.0811 -0.00228153 -0.0401928
				CHANNELS 6 Xposition Yposition Zposition Zrotation Xrotation Yrotation 
				JOINT Foot_R
				{
					OFFSET -40.9854 0.0 0.0
					CHANNELS 6 Xposition Yposition Zposition Zrotation Xrotation Yrotation 
					JOINT Toes_R
					{
						OFFSET -11.7543 0.0 0.0
						CHANNELS 6 Xposition Yposition Zposition Zrotation Xrotation Yrotation 
						End Site
						{
							OFFSET 0.0 0.0 0.0
						}
					}
				}
			}
		}
	}
}
MOTION
Frames:	4
Frame Time:	0.0333333
0.000000 0.000000 0.000000 0.000000 0.000000 -0.000000 -3.898720 92.952300 1.131140 87.653100 2.274200 1.507450 15.735700 0.000005 -0.000001 70.738200 87.398800 -69.724100 8.984550 -0.406207 -0.000000 -2.838660 -1.809350 1.983700 16.377300 -0.000001 -0.000001 3.875130 1.904880 -3.343400 6.456720 -0.000001 -0.000000 3.248800 2.013340 -2.068920 12.994200 -0.242716 4.980390 -92.471500 7.573080 -71.865800 5.348090 -0.000007 -0.000001 -73.356300 26.983000 1.633000 24.328600 0.000019 0.000005 11.979800 26.043700 -25.793500 22.291600 -0.000001 0.000005 -1.404260 4.912610 9.125470 12.994500 -0.242716 -4.980390 88.846600 3.896370 -73.496700 -5.348130 -0.000001 -0.000004 -72.962600 28.363300 -3.206930 -24.328900 0.000322 -0.000009 -0.396835 -1.721530 -12.947000 -22.291500 -0.000108 -0.000004 -10.014900 5.096340 5.197450 -2.192480 -6.469440 -0.000000 -171.178000 -6.573560 0.051455 39.081100 -0.000007 -0.000012 0.020126 -0.074139 15.187900 40.985400 -0.000006 -0.000013 -2.613590 13.211800 -68.673600 11.754300 -0.000000 0.000003 -0.001461 0.189382 -8.894010 -2.192510 6.469440 -0.000001 179.902000 7.304260 -178.127000 -39.081100 -0.002282 -0.040193 0.031796 -0.120573 13.282100 -40.985400 0.000008 0.000006 -3.698020 3.882900 -69.319300 -11.754300 -0.000006 -0.000006 -0.010601 0.275742 -5.369480
0.000000 0.000000 0.000000 0.000000 0.000000 -0.000000 -3.803030 92.960100 1.115420 87.660200 2.266250 1.423430 15.735700 0.000005 -0.000001 70.206800 87.383400 -69.288100 8.984550 -0.406207 -0.000000 -2.827160 -1.856300 1.791770 16.377300 -0.000001 -0.000001 3.779920 2.047860 -3.981870 6.456720 -0.000001 -0.000000 3.051120 2.015010 -2.624590 12.994200 -0.242716 4.980390 -92.421000 7.452560 -71.945800 5.348090 -0.000007 -0.000001 -73.428700 26.804300 1.709820 24.328600 0.000019 0.000005 11.952000 25.968600 -25.800100 22.291600 -0.000001 0.000005 -1.362820 4.913510 9.107430 12.994500 -0.242716 -4.980390 88.852300 3.833600 -73.319700 -5.348130 -0.000001 -0.000004 -71.967700 26.976600 -3.742060 -24.328900 0.000322 -0.000009 -0.051117 -0.224350 -12.569600 -22.291500 -0.000108 -0.000004 -10.546100 5.083780 5.483310 -2.192480 -6.469440 -0.000000 -171.264000 -6.614900 -0.064486 39.081100 -0.000007 -0.000012 0.021101 -0.077510 15.228800 40.985400 -0.000006 -0.000013 -2.539220 13.213300 -68.703600 11.754300 -0.000000 0.000003 -0.001713 0.192692 -8.759440 -2.192510 6.469440 -0.000001 179.821000 7.311180 -178.198000 -39.081100 -0.002282 -0.040193 0.030049 -0.113728 13.219700 -40.985400 0.000008 0.000006 -3.893720 3.951180 -69.184400 -11.754300 -0.000006 -0.000006 -0.010181 0.272650 -5.495970
0.000000 0.000000 0.000000 0.000000 0.000000 -0.000000 -3.680610 92.986300 1.082380 87.679300 2.246480 1.247490 15.735700 0.000005 -0.000001 68.663800 87.360000 -67.837800 8.984550 -0.406207 -0.000000 -2.833760 -1.996710 1.603040 16.377300 -0.000001 -0.000001 3.630460 2.263850 -4.721410 6.456720 -0.000001 -0.000000 2.782370 2.133680 -3.448490 12.994200 -0.242716 4.980390 -92.368700 7.320920 -72.015600 5.348090 -0.000007 -0.000001 -73.590500 26.500700 1.879020 24.328600 0.000019 0.000005 12.101000 26.129800 -25.957800 22.291600 -0.000001 0.000005 -1.340460 4.909280 9.192240 12.994500 -0.242716 -4.980390 88.802600 3.917670 -72.989900 -5.348130 -0.000001 -0.000004 -70.070200 25.662500 -4.820080 -24.328900 0.000322 -0.000009 0.561271 2.605680 -12.185500 -22.291500 -0.000108 -0.000004 -11.307700 5.083470 5.489570 -2.192480 -6.469440 -0.000000 -171.404000 -6.623520 -0.194008 39.081100 -0.000007 -0.000012 0.023440 -0.086782 15.115400 40.985400 -0.000006 -0.000013 -2.470950 13.143500 -68.712900 11.754300 -0.000000 0.000003 -0.001838 0.194294 -8.694280 -2.192510 6.469440 -0.000001 179.693000 7.355800 -178.286000 -39.081100 -0.002282 -0.040193 0.026300 -0.099517 12.995100 -40.985400 0.000008 0.000006 -4.197810 4.093550 -69.001000 -11.754300 -0.000006 -0.000006 -0.010194 0.272752 -5.491810
0.000000 0.000000 0.000000 0.000000 0.000000 -0.000000 -3.535440 92.993000 1.067700 87.674400 2.160860 1.166000 15.735700 0.000005 -0.000001 67.010800 87.296000 -66.258700 8.984550 -0.406207 -0.000000 -2.773690 -2.180500 1.451780 16.377300 -0.000001 -0.000001 3.578160 2.527160 -5.525960 6.456720 -0.000001 -0.000000 2.326470 2.348170 -4.558370 12.994200 -0.242716 4.980390 -92.306000 7.134060 -72.034500 5.348090 -0.000007 -0.000001 -73.885800 26.238200 2.092170 24.328600 0.000019 0.000005 12.051100 26.036300 -25.937000 22.291600 -0.000001 0.000005 -1.391940 4.912220 9.133230 12.994500 -0.242716 -4.980390 88.778000 3.905250 -72.609500 -5.348130 -0.000001 -0.000004 -67.424300 24.075400 -6.316050 -24.328900 0.000322 -0.000009 1.058090 5.081450 -11.791300 -22.291500 -0.000108 -0.000004 -12.057200 5.091730 5.301970 -2.192480 -6.469440 -0.000000 -171.537000 -6.558090 -0.311024 39.081100 -0.000007 -0.000012 0.026007 -0.095695 15.204000 40.985400 -0.000006 -0.000013 -2.373460 12.958600 -68.776200 11.754300 -0.000000 0.000003 -0.001888 0.194933 -8.668330 -2.192510 6.469440 -0.000001 179.560000 7.477680 -178.331000 -39.081100 -0.002282 -0.040193 0.024655 -0.093086 12.900800 -40.985400 0.000008 0.000006 -4.376220 4.345360 -68.887000 -11.754300 -0.000006 -0.000006 -0.010383 0.274144 -5.434840
